<?xml version="1.0" encoding="utf-8"?>
<!-- Generator: Adobe Illustrator 24.3.0, SVG Export Plug-In . SVG Version: 6.00 Build 0)  -->
<svg version="1.1" id="Layer_1" xmlns="http://www.w3.org/2000/svg" xmlns:xlink="http://www.w3.org/1999/xlink" x="0px" y="0px"
	 viewBox="0 0 1121.76 713.36" style="enable-background:new 0 0 1121.76 713.36;" xml:space="preserve">
<style type="text/css">
	.st0{fill:#ED1C24;}
	.st1{fill:url(#XMLID_2_);}
	.st2{fill:url(#XMLID_3_);}
	.st3{fill:url(#XMLID_4_);}
	.st4{fill:url(#XMLID_5_);}
	.st5{fill:url(#XMLID_6_);}
	.st6{fill:url(#XMLID_7_);}
</style>
<rect id="XMLID_104_" x="-10.21" y="62.38" width="1121.76" height="575.97"/>
<g id="XMLID_95_">
	<path id="XMLID_103_" class="st0" d="M346.83,572.9c-7.08-6.84-12.91-14.47-17.52-23.02c-3.93-7.29-6.82-14.97-8.68-23.03
		c-0.78-3.39-1.25-6.83-1.78-10.26c-0.31-1.98,0.22-3.38,1.48-4.8c2.56-2.88,5.49-5.3,8.63-7.5c5.31-3.72,11.02-6.75,16.9-9.46
		c10.79-4.98,21.98-8.85,33.39-12.09c8.87-2.52,17.84-4.62,26.9-6.27c5.01-0.91,10.06-1.67,15.11-2.35
		c4.64-0.62,9.3-1.14,13.97-1.52c5.66-0.46,11.33-0.72,17.01-0.7c0.22,0,0.44,0.04,0.76,0.07c1.4,6.73,2.4,13.51,3.08,20.4
		c-0.84,0.12-1.62,0.24-2.39,0.33c-5.73,0.73-11.07,2.67-16.15,5.33c-4.71,2.46-9.05,5.47-13.2,8.77c-6.41,5.1-12.29,10.77-18,16.62
		c-7.27,7.45-14.45,14.98-21.78,22.37c-6.4,6.46-13.17,12.5-20.62,17.75c-5.05,3.56-10.35,6.68-16.1,8.98
		C347.51,572.64,347.2,572.76,346.83,572.9z"/>
	<path id="XMLID_102_" class="st0" d="M351,576.6c1.23-0.58,2.33-1.08,3.41-1.61c5.63-2.75,10.85-6.15,15.82-9.94
		c6.91-5.26,13.29-11.12,19.37-17.31c6.23-6.34,12.36-12.78,18.56-19.16c5.81-5.97,11.73-11.82,18.19-17.09
		c4.23-3.45,8.67-6.59,13.53-9.11c5-2.59,10.25-4.44,15.91-4.95c0.22-0.02,0.43,0,0.7,0c0.1,1.1,0.22,2.15,0.27,3.19
		c0.31,6.24,0.37,12.48,0,18.72c-0.56,9.45-1.88,18.79-4.37,27.94c-3.37,12.41-8.61,23.93-16.43,34.2
		c-4.66,6.12-10.05,11.5-16.11,16.22c-0.59,0.46-1.23,0.56-1.9,0.6c-4.23,0.26-8.46,0.34-12.7,0.1c-10.28-0.6-20.17-2.86-29.68-6.78
		c-8.77-3.61-16.8-8.46-24.05-14.58C351.37,576.93,351.24,576.81,351,576.6z"/>
	<path id="XMLID_101_" class="st0" d="M447.11,449.46c1.85,5.7,3.49,11.49,4.83,17.49c-0.56,0.03-0.97,0.06-1.38,0.07
		c-3.86,0.1-7.72,0.09-11.57,0.33c-4.64,0.3-9.27,0.76-13.89,1.26c-11.13,1.19-22.13,3.19-33.03,5.72
		c-13.7,3.17-27.14,7.19-40.19,12.46c-8.25,3.34-16.26,7.15-23.72,12.03c-3.3,2.16-6.44,4.52-9.27,7.28
		c-0.16,0.15-0.33,0.28-0.61,0.51c0-1.05-0.03-1.95,0-2.85c0.7-19.73,6.85-37.55,18.75-53.34c3.98-5.28,8.5-10.04,13.49-14.38
		c0.38-0.33,0.78-0.53,1.29-0.63c3.37-0.67,6.76-1.27,10.19-1.54c3.05-0.24,6.11-0.52,9.17-0.57c8.76-0.14,17.32,1.18,25.72,3.64
		c5.62,1.65,11.1,3.7,16.6,5.7c5.29,1.92,10.61,3.75,16.11,4.97c3.36,0.75,6.74,1.34,10.19,1.52
		C442.17,449.28,444.55,449.36,447.11,449.46z"/>
	<path id="XMLID_100_" class="st0" d="M428.92,596.7c1.28-1.3,2.51-2.57,3.76-3.84c6.44-6.55,11.69-13.96,15.93-22.1
		c4.85-9.31,8.16-19.15,10.28-29.42c1.02-4.96,1.85-9.95,2.25-15.01c0.29-3.66,0.52-7.32,0.69-10.98c0.12-2.72,0.16-5.45,0.11-8.17
		c-0.05-3.02-0.25-6.05-0.38-9.07c-0.01-0.29,0-0.59,0-1.03c1.23,0.07,2.39,0.07,3.54,0.22c4.99,0.63,9.62,2.25,13.73,5.21
		c4.37,3.15,7.51,7.3,9.79,12.15c2.15,4.59,3.37,9.44,4.09,14.43c0.66,4.58,0.87,9.18,0.83,13.8c-0.01,1.4-0.08,2.8-0.18,4.2
		c-0.03,0.39-0.22,0.79-0.4,1.15c-2.92,5.76-6.45,11.12-10.52,16.12c-7.17,8.81-15.67,16.06-25.49,21.77
		c-8.63,5.02-17.84,8.49-27.6,10.55C429.22,596.73,429.08,596.7,428.92,596.7z"/>
	<path id="XMLID_99_" class="st0" d="M359.83,429.04c0.74-0.48,1.36-0.91,2-1.31c9.42-5.88,19.57-9.94,30.45-12.18
		c4.44-0.91,8.94-1.44,13.48-1.7c3.94-0.23,7.87-0.17,11.8,0.11c3.81,0.27,7.59,0.77,11.33,1.57c0.42,0.09,0.87,0.33,1.16,0.63
		c1,1.03,2.01,2.07,2.88,3.2c3.07,4.02,5.47,8.43,7.52,13.03c1.59,3.55,3.01,7.17,4.49,10.77c0.14,0.34,0.22,0.71,0.37,1.21
		c-1.75,0-3.4-0.01-5.05-0.13c-9.07-0.66-17.59-3.48-26.05-6.58c-5.81-2.13-11.62-4.28-17.6-5.9c-5-1.35-10.07-2.33-15.23-2.9
		c-4.87-0.53-9.75-0.52-14.63-0.36c-2.15,0.07-4.29,0.38-6.43,0.58C360.2,429.09,360.09,429.07,359.83,429.04z"/>
	<path id="XMLID_98_" class="st0" d="M461.12,492.02c-0.43-3.31-0.83-6.65-1.32-9.97c-0.48-3.28-1.05-6.55-1.6-9.94
		c0.31-0.02,0.63-0.07,0.95-0.05c3.69,0.29,7.39,0.53,11.07,0.89c4.89,0.48,9.71,1.43,14.44,2.76c5.11,1.44,9.99,3.41,14.48,6.3
		c0.73,0.47,1.09,1.04,1.28,1.86c1.09,4.52,1.87,9.09,2.31,13.72c0.36,3.81,0.5,7.63,0.37,11.45c-0.3,8.88-1.78,17.56-4.75,26.02
		c-0.07-0.52-0.15-1.05-0.19-1.57c-0.52-6.82-1.83-13.46-4.56-19.77c-2.43-5.61-5.87-10.47-10.69-14.29
		c-4.44-3.52-9.48-5.75-15.06-6.67C465.66,492.39,463.43,492.26,461.12,492.02z"/>
	<path id="XMLID_97_" class="st0" d="M457.19,466.97c-1.57-5.87-3.13-11.68-4.71-17.6c0.58,0,1.1,0.01,1.62,0
		c5.27-0.06,10.48-0.58,15.56-2.07c3.03-0.89,5.9-2.12,8.47-4.27c4.41,4.64,8.23,9.72,11.56,15.17c3.31,5.43,6.03,11.13,8.22,17.32
		c-0.41-0.19-0.67-0.29-0.92-0.42c-5.29-2.59-10.86-4.32-16.61-5.52c-5.07-1.06-10.19-1.77-15.36-2.1
		C462.42,467.31,459.82,467.14,457.19,466.97z"/>
	<path id="XMLID_96_" class="st0" d="M474.61,439.52c-0.43,0.31-0.84,0.64-1.28,0.9c-2.4,1.42-5.04,2.21-7.75,2.78
		c-4.73,0.99-9.51,1.27-14.33,1.17c-0.19,0-0.37-0.04-0.6-0.07c-3.3-9.15-7.06-18.07-12.44-26.28c4.54,1.24,8.84,3.02,13.04,5.06
		C461.14,427.88,469.99,434.76,474.61,439.52z"/>
</g>
<linearGradient id="XMLID_2_" gradientUnits="userSpaceOnUse" x1="834.1937" y1="504.1566" x2="988.0268" y2="504.1566">
	<stop  offset="0" style="stop-color:#E5E2DF"/>
	<stop  offset="0" style="stop-color:#DED9D6"/>
	<stop  offset="0.0616" style="stop-color:#CECAC9"/>
	<stop  offset="0.1794" style="stop-color:#A8A4A7"/>
	<stop  offset="0.264" style="stop-color:#8B878D"/>
	<stop  offset="0.5225" style="stop-color:#F3F4F4"/>
	<stop  offset="0.5875" style="stop-color:#E0DFE0"/>
	<stop  offset="0.7124" style="stop-color:#B7B4B8"/>
	<stop  offset="0.8764" style="stop-color:#807B80"/>
	<stop  offset="1" style="stop-color:#D1D3D4"/>
	<stop  offset="1" style="stop-color:#A7A9AC"/>
</linearGradient>
<path id="XMLID_94_" class="st1" d="M965.29,496.01c-14.04-8.77-32.6-12-48.92-14.02c-24.5-2.92-34.04-7.73-34.04-17.18
	c0-11.49,11.55-18.36,30.9-18.36c17.18,0,31.66,8.68,36.56,16.84l1.97,3.28l32.31-16.62l-1.77-3.6
	c-11.5-23.44-35.72-35.83-70.07-35.83c-34.57,0.27-69.46,16.86-69.46,53.32c0,41.33,35.37,51.11,70.02,55.23
	c31.77,3.42,35.44,13.5,35.44,20.79c0,19.72-26.61,21.25-34.77,21.25c-21.29,0-37.64-9.06-43.75-24.23l-1.68-4.17l-33.85,17.54
	l1.4,3.45c12.04,29.65,37.36,44.06,77.39,44.06c20.79,0,38.73-4.66,51.87-13.48c15.16-10.17,23.17-25.53,23.17-44.42
	C988.03,519.91,980.59,505.57,965.29,496.01z"/>
<linearGradient id="XMLID_3_" gradientUnits="userSpaceOnUse" x1="681.8162" y1="504.7594" x2="831.6208" y2="504.7594">
	<stop  offset="0" style="stop-color:#E5E2DF"/>
	<stop  offset="0" style="stop-color:#DED9D6"/>
	<stop  offset="0.0616" style="stop-color:#CECAC9"/>
	<stop  offset="0.1794" style="stop-color:#A8A4A7"/>
	<stop  offset="0.264" style="stop-color:#8B878D"/>
	<stop  offset="0.5225" style="stop-color:#F3F4F4"/>
	<stop  offset="0.5875" style="stop-color:#E0DFE0"/>
	<stop  offset="0.7124" style="stop-color:#B7B4B8"/>
	<stop  offset="0.8764" style="stop-color:#807B80"/>
	<stop  offset="1" style="stop-color:#D1D3D4"/>
	<stop  offset="1" style="stop-color:#A7A9AC"/>
</linearGradient>
<path id="XMLID_91_" class="st2" d="M815.03,436.09c-12.06-13.09-29.18-20.01-49.49-20.01c-13.28,0-26.78,0.06-39.84,0.12
	c-13.05,0.06-26.54,0.12-39.8,0.12h-4.09v50.9c4.45,12.1,6.75,25.27,6.6,38.76c-0.15,13.17-2.42,25.84-6.6,37.44v50.01h40.03v-49.71
	h43.7c20.33,0,37.45-6.9,49.51-19.96c10.69-11.57,16.57-27.13,16.57-43.8C831.62,463.28,825.73,447.7,815.03,436.09z M785.4,498.36
	c-4.74,5.22-11.61,7.99-19.86,7.99h-43.7v-51.67h43.7c18.15,0,26.41,13.43,26.41,25.9C791.95,487.38,789.63,493.7,785.4,498.36z"/>
<linearGradient id="XMLID_4_" gradientUnits="userSpaceOnUse" x1="504.5716" y1="505.1216" x2="678.8741" y2="505.1216">
	<stop  offset="0" style="stop-color:#E5E2DF"/>
	<stop  offset="0" style="stop-color:#DED9D6"/>
	<stop  offset="0.0616" style="stop-color:#CECAC9"/>
	<stop  offset="0.1794" style="stop-color:#A8A4A7"/>
	<stop  offset="0.264" style="stop-color:#8B878D"/>
	<stop  offset="0.5225" style="stop-color:#F3F4F4"/>
	<stop  offset="0.5875" style="stop-color:#E0DFE0"/>
	<stop  offset="0.7124" style="stop-color:#B7B4B8"/>
	<stop  offset="0.8764" style="stop-color:#807B80"/>
	<stop  offset="1" style="stop-color:#D1D3D4"/>
	<stop  offset="1" style="stop-color:#A7A9AC"/>
</linearGradient>
<path id="XMLID_88_" class="st3" d="M652.81,438.17c-16.32-16.5-38.68-25.22-64.66-25.22c-44.16,0-71.32,24.1-83.47,54.07
	c4.94,11.96,7.68,25.06,7.68,38.81c0,13.84-2.77,27.04-7.78,39.06c12.04,29.48,39.12,52.41,83.57,52.41
	c61.97,0,90.22-45.91,90.72-91.4C679.15,479.88,669.65,455.2,652.81,438.17z M588.14,559.92c-36.88,0-50.75-27.61-51.42-53.46
	c-0.42-16.59,5.1-32.02,15.15-42.33c9.09-9.32,21.29-14.05,36.27-14.05c14.85,0,26.93,4.63,35.9,13.75
	c9.99,10.17,15.56,25.63,15.28,42.42C638.87,532.2,625.19,559.92,588.14,559.92z"/>
<g id="XMLID_85_">
	<linearGradient id="XMLID_5_" gradientUnits="userSpaceOnUse" x1="161.3272" y1="446.4988" x2="201.3583" y2="446.4988">
		<stop  offset="0" style="stop-color:#E5E2DF"/>
		<stop  offset="0" style="stop-color:#DED9D6"/>
		<stop  offset="0.0616" style="stop-color:#CECAC9"/>
		<stop  offset="0.1794" style="stop-color:#A8A4A7"/>
		<stop  offset="0.264" style="stop-color:#8B878D"/>
		<stop  offset="0.5225" style="stop-color:#F3F4F4"/>
		<stop  offset="0.5875" style="stop-color:#E0DFE0"/>
		<stop  offset="0.7124" style="stop-color:#B7B4B8"/>
		<stop  offset="0.8764" style="stop-color:#807B80"/>
		<stop  offset="1" style="stop-color:#D1D3D4"/>
		<stop  offset="1" style="stop-color:#A7A9AC"/>
	</linearGradient>
	<rect id="XMLID_87_" x="161.33" y="416.57" class="st4" width="40.03" height="59.86"/>
	<linearGradient id="XMLID_6_" gradientUnits="userSpaceOnUse" x1="126.979" y1="518.7639" x2="315.9891" y2="518.7639">
		<stop  offset="0" style="stop-color:#E5E2DF"/>
		<stop  offset="0" style="stop-color:#DED9D6"/>
		<stop  offset="0.0616" style="stop-color:#CECAC9"/>
		<stop  offset="0.1794" style="stop-color:#A8A4A7"/>
		<stop  offset="0.264" style="stop-color:#8B878D"/>
		<stop  offset="0.5225" style="stop-color:#F3F4F4"/>
		<stop  offset="0.5875" style="stop-color:#E0DFE0"/>
		<stop  offset="0.7124" style="stop-color:#B7B4B8"/>
		<stop  offset="0.8764" style="stop-color:#807B80"/>
		<stop  offset="1" style="stop-color:#D1D3D4"/>
		<stop  offset="1" style="stop-color:#A7A9AC"/>
	</linearGradient>
	<path id="XMLID_86_" class="st5" d="M315.99,416.57H276.2v71.19h-20.91v0.07H140.62l-13.64,37.82h34.35v95.3l40.03-27.28v-68.02
		h74.84v68.02h39.79v-46.7c-5.31-12.42-8.26-26.1-8.26-40.47c0-14.37,2.94-28.04,8.26-40.47V416.57z"/>
</g>
<g id="XMLID_79_">
	<linearGradient id="XMLID_7_" gradientUnits="userSpaceOnUse" x1="325.5557" y1="226.3476" x2="563.4108" y2="226.3476">
		<stop  offset="0" style="stop-color:#E5E2DF"/>
		<stop  offset="0" style="stop-color:#DED9D6"/>
		<stop  offset="0.0616" style="stop-color:#CECAC9"/>
		<stop  offset="0.1794" style="stop-color:#A8A4A7"/>
		<stop  offset="0.264" style="stop-color:#8B878D"/>
		<stop  offset="0.5225" style="stop-color:#F3F4F4"/>
		<stop  offset="0.5875" style="stop-color:#E0DFE0"/>
		<stop  offset="0.7124" style="stop-color:#B7B4B8"/>
		<stop  offset="0.8764" style="stop-color:#807B80"/>
		<stop  offset="1" style="stop-color:#D1D3D4"/>
		<stop  offset="1" style="stop-color:#A7A9AC"/>
	</linearGradient>
	<path id="XMLID_82_" class="st6" d="M563.41,323.8c-26.88,26.51-61.61,38.83-99.32,38.83c-97.08,0-138.16-66.84-138.53-134.8
		c-0.37-68.33,44.06-137.78,138.53-137.78c35.47,0,69.08,13.44,95.96,39.95l-32.86,31.74c-17.18-16.8-40.33-24.64-63.1-24.64
		c-63.1,0-90.36,47.05-89.99,90.74c0.37,43.31,25.39,88.49,89.99,88.49c22.78,0,48.54-9.33,65.72-26.51L563.41,323.8z"/>
	<path id="XMLID_80_" class="st0" d="M751.74,159.14c-17.55-16.8-43.69-26.14-66.46-26.14c-56.01,0-89.99,42.57-89.99,96.34
		c0,42.94,25.02,87.37,89.99,87.37c20.54,0,38.46-4.48,59-20.91v-46.3h-66.84v-44.06h112.02v110.15
		c-25.76,29.5-58.25,47.05-104.18,47.05c-98.2,0-138.16-64.6-138.16-133.3c0-73.56,45.93-141.52,138.16-141.52
		c35.1,0,70.2,13.44,97.08,39.95L751.74,159.14z"/>
</g>
</svg>
